<mxfile host="65bd71144e" scale="3" border="0">
    <diagram id="xP64A4RlHu_lObVjqN0B" name="Page-1">
        <mxGraphModel dx="592" dy="368" grid="1" gridSize="10" guides="1" tooltips="1" connect="1" arrows="1" fold="1" page="1" pageScale="1" pageWidth="583" pageHeight="827" math="0" shadow="0">
            <root>
                <mxCell id="0"/>
                <mxCell id="1" parent="0"/>
                <mxCell id="28" value="Number" style="rounded=0;whiteSpace=wrap;html=1;fontFamily=Garamond;fontSize=18;fillColor=none;strokeColor=#CC0000;" vertex="1" parent="1">
                    <mxGeometry x="192" y="70" width="80" height="20" as="geometry"/>
                </mxCell>
                <mxCell id="29" style="edgeStyle=none;html=1;exitX=0.25;exitY=1;exitDx=0;exitDy=0;entryX=0;entryY=0.5;entryDx=0;entryDy=0;fontFamily=Garamond;fontSize=18;strokeColor=#000000;" edge="1" parent="1" source="27" target="28">
                    <mxGeometry relative="1" as="geometry">
                        <Array as="points">
                            <mxPoint x="172" y="80"/>
                        </Array>
                    </mxGeometry>
                </mxCell>
                <mxCell id="27" value="Any" style="rounded=0;whiteSpace=wrap;html=1;fontFamily=Garamond;fontSize=16;fillColor=none;strokeColor=#CC0000;" vertex="1" parent="1">
                    <mxGeometry x="152" y="40" width="80" height="20" as="geometry"/>
                </mxCell>
                <mxCell id="32" style="edgeStyle=none;html=1;entryX=0;entryY=0.5;entryDx=0;entryDy=0;fontFamily=Garamond;fontSize=18;strokeColor=#000000;" edge="1" parent="1" target="30">
                    <mxGeometry relative="1" as="geometry">
                        <mxPoint x="212" y="110" as="sourcePoint"/>
                        <Array as="points"/>
                    </mxGeometry>
                </mxCell>
                <mxCell id="33" style="edgeStyle=none;html=1;exitX=0.25;exitY=1;exitDx=0;exitDy=0;entryX=0;entryY=0.5;entryDx=0;entryDy=0;fontFamily=Garamond;fontSize=18;strokeColor=#000000;" edge="1" parent="1" source="28" target="31">
                    <mxGeometry relative="1" as="geometry">
                        <mxPoint x="212" y="100" as="sourcePoint"/>
                        <Array as="points">
                            <mxPoint x="212" y="140"/>
                        </Array>
                    </mxGeometry>
                </mxCell>
                <mxCell id="30" value="Complex" style="rounded=0;whiteSpace=wrap;html=1;fontFamily=Garamond;fontSize=16;fillColor=none;strokeColor=#CC0000;" vertex="1" parent="1">
                    <mxGeometry x="232" y="100" width="80" height="20" as="geometry"/>
                </mxCell>
                <mxCell id="49" style="edgeStyle=none;html=1;exitX=0.25;exitY=1;exitDx=0;exitDy=0;entryX=0;entryY=0.5;entryDx=0;entryDy=0;fontFamily=Garamond;fontSize=16;strokeColor=#000000;" edge="1" parent="1" source="31" target="48">
                    <mxGeometry relative="1" as="geometry">
                        <Array as="points">
                            <mxPoint x="252" y="170"/>
                        </Array>
                    </mxGeometry>
                </mxCell>
                <mxCell id="31" value="Real" style="rounded=0;whiteSpace=wrap;html=1;fontFamily=Garamond;fontSize=18;fillColor=none;strokeColor=#CC0000;" vertex="1" parent="1">
                    <mxGeometry x="232" y="130" width="80" height="20" as="geometry"/>
                </mxCell>
                <mxCell id="65" style="edgeStyle=none;html=1;exitX=0.25;exitY=1;exitDx=0;exitDy=0;entryX=0;entryY=0.5;entryDx=0;entryDy=0;fontFamily=Garamond;fontSize=16;" edge="1" parent="1" source="48" target="50">
                    <mxGeometry relative="1" as="geometry">
                        <Array as="points">
                            <mxPoint x="292" y="200"/>
                        </Array>
                    </mxGeometry>
                </mxCell>
                <mxCell id="66" style="edgeStyle=none;html=1;exitX=0.25;exitY=1;exitDx=0;exitDy=0;entryX=0;entryY=0.5;entryDx=0;entryDy=0;fontFamily=Garamond;fontSize=16;" edge="1" parent="1" source="48" target="51">
                    <mxGeometry relative="1" as="geometry">
                        <Array as="points">
                            <mxPoint x="292" y="230"/>
                        </Array>
                    </mxGeometry>
                </mxCell>
                <mxCell id="76" style="edgeStyle=none;html=1;exitX=0.25;exitY=1;exitDx=0;exitDy=0;entryX=0;entryY=0.5;entryDx=0;entryDy=0;fontFamily=Garamond;fontSize=16;" edge="1" parent="1" source="48" target="58">
                    <mxGeometry relative="1" as="geometry">
                        <Array as="points">
                            <mxPoint x="292" y="200"/>
                            <mxPoint x="172" y="200"/>
                            <mxPoint x="172" y="230"/>
                        </Array>
                    </mxGeometry>
                </mxCell>
                <mxCell id="83" style="edgeStyle=none;html=1;exitX=0.25;exitY=1;exitDx=0;exitDy=0;entryX=0;entryY=0.5;entryDx=0;entryDy=0;fontFamily=Garamond;fontSize=16;" edge="1" parent="1" source="48" target="82">
                    <mxGeometry relative="1" as="geometry">
                        <Array as="points">
                            <mxPoint x="292" y="200"/>
                            <mxPoint x="172" y="200"/>
                            <mxPoint x="172" y="410"/>
                        </Array>
                    </mxGeometry>
                </mxCell>
                <mxCell id="48" value="Integer" style="rounded=0;whiteSpace=wrap;html=1;fontFamily=Garamond;fontSize=16;fillColor=none;spacing=1;strokeColor=#CC0000;" vertex="1" parent="1">
                    <mxGeometry x="272" y="160" width="80" height="20" as="geometry"/>
                </mxCell>
                <mxCell id="50" value="Bool" style="rounded=0;whiteSpace=wrap;html=1;fontFamily=Garamond;fontSize=16;fillColor=none;spacing=1;strokeColor=#0000CC;" vertex="1" parent="1">
                    <mxGeometry x="312" y="190" width="80" height="20" as="geometry"/>
                </mxCell>
                <mxCell id="68" style="edgeStyle=none;html=1;exitX=0.25;exitY=1;exitDx=0;exitDy=0;entryX=0;entryY=0.5;entryDx=0;entryDy=0;fontFamily=Garamond;fontSize=16;" edge="1" parent="1" source="51" target="52">
                    <mxGeometry relative="1" as="geometry">
                        <Array as="points">
                            <mxPoint x="332" y="260"/>
                        </Array>
                    </mxGeometry>
                </mxCell>
                <mxCell id="69" style="edgeStyle=none;html=1;exitX=0.25;exitY=1;exitDx=0;exitDy=0;entryX=0;entryY=0.5;entryDx=0;entryDy=0;fontFamily=Garamond;fontSize=16;" edge="1" parent="1" source="51" target="53">
                    <mxGeometry relative="1" as="geometry">
                        <Array as="points">
                            <mxPoint x="332" y="290"/>
                        </Array>
                    </mxGeometry>
                </mxCell>
                <mxCell id="71" style="edgeStyle=none;html=1;exitX=0.25;exitY=1;exitDx=0;exitDy=0;entryX=0;entryY=0.5;entryDx=0;entryDy=0;fontFamily=Garamond;fontSize=16;" edge="1" parent="1" source="51" target="54">
                    <mxGeometry relative="1" as="geometry">
                        <Array as="points">
                            <mxPoint x="332" y="320"/>
                        </Array>
                    </mxGeometry>
                </mxCell>
                <mxCell id="73" style="edgeStyle=none;html=1;exitX=0.25;exitY=1;exitDx=0;exitDy=0;entryX=0;entryY=0.5;entryDx=0;entryDy=0;fontFamily=Garamond;fontSize=16;" edge="1" parent="1" source="51" target="55">
                    <mxGeometry relative="1" as="geometry">
                        <Array as="points">
                            <mxPoint x="332" y="350"/>
                        </Array>
                    </mxGeometry>
                </mxCell>
                <mxCell id="74" style="edgeStyle=none;html=1;exitX=0.25;exitY=1;exitDx=0;exitDy=0;entryX=0;entryY=0.5;entryDx=0;entryDy=0;fontFamily=Garamond;fontSize=16;" edge="1" parent="1" source="51" target="56">
                    <mxGeometry relative="1" as="geometry">
                        <Array as="points">
                            <mxPoint x="332" y="380"/>
                        </Array>
                    </mxGeometry>
                </mxCell>
                <mxCell id="75" style="edgeStyle=none;html=1;exitX=0.25;exitY=1;exitDx=0;exitDy=0;entryX=0;entryY=0.5;entryDx=0;entryDy=0;fontFamily=Garamond;fontSize=16;" edge="1" parent="1" source="51" target="57">
                    <mxGeometry relative="1" as="geometry">
                        <Array as="points">
                            <mxPoint x="332" y="340"/>
                            <mxPoint x="332" y="410"/>
                        </Array>
                    </mxGeometry>
                </mxCell>
                <mxCell id="51" value="Signed" style="rounded=0;whiteSpace=wrap;html=1;fontFamily=Garamond;fontSize=16;fillColor=none;spacing=1;strokeColor=#CC0000;" vertex="1" parent="1">
                    <mxGeometry x="312" y="220" width="80" height="20" as="geometry"/>
                </mxCell>
                <mxCell id="52" value="BigInt" style="rounded=0;whiteSpace=wrap;html=1;fontFamily=Garamond;fontSize=16;fillColor=none;spacing=1;strokeColor=#0000CC;" vertex="1" parent="1">
                    <mxGeometry x="352" y="250" width="80" height="20" as="geometry"/>
                </mxCell>
                <mxCell id="53" value="Int128" style="rounded=0;whiteSpace=wrap;html=1;fontFamily=Garamond;fontSize=16;fillColor=none;spacing=1;strokeColor=#0000CC;" vertex="1" parent="1">
                    <mxGeometry x="352" y="280" width="80" height="20" as="geometry"/>
                </mxCell>
                <mxCell id="54" value="Int64" style="rounded=0;whiteSpace=wrap;html=1;fontFamily=Garamond;fontSize=16;fillColor=none;spacing=1;strokeColor=#0000CC;" vertex="1" parent="1">
                    <mxGeometry x="352" y="310" width="80" height="20" as="geometry"/>
                </mxCell>
                <mxCell id="55" value="Int32" style="rounded=0;whiteSpace=wrap;html=1;fontFamily=Garamond;fontSize=16;fillColor=none;spacing=1;strokeColor=#0000CC;" vertex="1" parent="1">
                    <mxGeometry x="352" y="340" width="80" height="20" as="geometry"/>
                </mxCell>
                <mxCell id="56" value="Int16" style="rounded=0;whiteSpace=wrap;html=1;fontFamily=Garamond;fontSize=16;fillColor=none;spacing=1;strokeColor=#0000CC;" vertex="1" parent="1">
                    <mxGeometry x="352" y="370" width="80" height="20" as="geometry"/>
                </mxCell>
                <mxCell id="57" value="Int8" style="rounded=0;whiteSpace=wrap;html=1;fontFamily=Garamond;fontSize=16;fillColor=none;spacing=1;strokeColor=#0000CC;" vertex="1" parent="1">
                    <mxGeometry x="352" y="400" width="80" height="20" as="geometry"/>
                </mxCell>
                <mxCell id="77" style="edgeStyle=none;html=1;exitX=0.25;exitY=1;exitDx=0;exitDy=0;entryX=0;entryY=0.5;entryDx=0;entryDy=0;fontFamily=Garamond;fontSize=16;" edge="1" parent="1" source="58" target="60">
                    <mxGeometry relative="1" as="geometry">
                        <Array as="points">
                            <mxPoint x="212" y="260"/>
                        </Array>
                    </mxGeometry>
                </mxCell>
                <mxCell id="78" style="edgeStyle=none;html=1;exitX=0.25;exitY=1;exitDx=0;exitDy=0;entryX=0;entryY=0.5;entryDx=0;entryDy=0;fontFamily=Garamond;fontSize=16;" edge="1" parent="1" source="58" target="61">
                    <mxGeometry relative="1" as="geometry">
                        <Array as="points">
                            <mxPoint x="212" y="290"/>
                        </Array>
                    </mxGeometry>
                </mxCell>
                <mxCell id="79" style="edgeStyle=none;html=1;exitX=0.25;exitY=1;exitDx=0;exitDy=0;entryX=0;entryY=0.5;entryDx=0;entryDy=0;fontFamily=Garamond;fontSize=16;" edge="1" parent="1" source="58" target="62">
                    <mxGeometry relative="1" as="geometry">
                        <Array as="points">
                            <mxPoint x="212" y="320"/>
                        </Array>
                    </mxGeometry>
                </mxCell>
                <mxCell id="80" style="edgeStyle=none;html=1;exitX=0.25;exitY=1;exitDx=0;exitDy=0;entryX=0;entryY=0.5;entryDx=0;entryDy=0;fontFamily=Garamond;fontSize=16;" edge="1" parent="1" source="58" target="63">
                    <mxGeometry relative="1" as="geometry">
                        <Array as="points">
                            <mxPoint x="212" y="350"/>
                        </Array>
                    </mxGeometry>
                </mxCell>
                <mxCell id="81" style="edgeStyle=none;html=1;exitX=0.25;exitY=1;exitDx=0;exitDy=0;entryX=0;entryY=0.5;entryDx=0;entryDy=0;fontFamily=Garamond;fontSize=16;" edge="1" parent="1" source="58" target="64">
                    <mxGeometry relative="1" as="geometry">
                        <Array as="points">
                            <mxPoint x="212" y="380"/>
                        </Array>
                    </mxGeometry>
                </mxCell>
                <mxCell id="58" value="Unsigned" style="rounded=0;whiteSpace=wrap;html=1;fontFamily=Garamond;fontSize=16;fillColor=none;spacing=1;strokeColor=#CC0000;" vertex="1" parent="1">
                    <mxGeometry x="192" y="220" width="80" height="20" as="geometry"/>
                </mxCell>
                <mxCell id="60" value="UInt128" style="rounded=0;whiteSpace=wrap;html=1;fontFamily=Garamond;fontSize=16;fillColor=none;spacing=1;strokeColor=#0000CC;" vertex="1" parent="1">
                    <mxGeometry x="232" y="250" width="80" height="20" as="geometry"/>
                </mxCell>
                <mxCell id="61" value="UInt64" style="rounded=0;whiteSpace=wrap;html=1;fontFamily=Garamond;fontSize=16;fillColor=none;spacing=1;strokeColor=#0000CC;" vertex="1" parent="1">
                    <mxGeometry x="232" y="280" width="80" height="20" as="geometry"/>
                </mxCell>
                <mxCell id="62" value="UInt32" style="rounded=0;whiteSpace=wrap;html=1;fontFamily=Garamond;fontSize=16;fillColor=none;spacing=1;strokeColor=#0000CC;" vertex="1" parent="1">
                    <mxGeometry x="232" y="310" width="80" height="20" as="geometry"/>
                </mxCell>
                <mxCell id="63" value="UInt16" style="rounded=0;whiteSpace=wrap;html=1;fontFamily=Garamond;fontSize=16;fillColor=none;spacing=1;strokeColor=#0000CC;" vertex="1" parent="1">
                    <mxGeometry x="232" y="340" width="80" height="20" as="geometry"/>
                </mxCell>
                <mxCell id="64" value="UInt8" style="rounded=0;whiteSpace=wrap;html=1;fontFamily=Garamond;fontSize=16;fillColor=none;spacing=1;strokeColor=#0000CC;" vertex="1" parent="1">
                    <mxGeometry x="232" y="370" width="80" height="20" as="geometry"/>
                </mxCell>
                <mxCell id="82" value="Rational" style="rounded=0;whiteSpace=wrap;html=1;fontFamily=Garamond;fontSize=16;fillColor=none;spacing=1;strokeColor=#0000CC;" vertex="1" parent="1">
                    <mxGeometry x="192" y="400" width="80" height="20" as="geometry"/>
                </mxCell>
            </root>
        </mxGraphModel>
    </diagram>
</mxfile>